HIERARCHY
ROOT Hips
{
	OFFSET 46.222801 -9.611734 86.604401
	CHANNELS 6 Xposition Yposition Zposition Xrotation Yrotation Zrotation
	JOINT spine
	{
		OFFSET 0.000000 -0.393701 6.846367
		CHANNELS 3 Xrotation Yrotation Zrotation
		JOINT spine1
		{
			OFFSET 0.000000 -0.000002 9.496208
			CHANNELS 3 Xrotation Yrotation Zrotation
			JOINT spine2
			{
				OFFSET 0.000000 -0.000001 9.099091
				CHANNELS 3 Xrotation Yrotation Zrotation
				JOINT Neck
				{
					OFFSET 0.000000 -1.113784 23.361206
					CHANNELS 3 Xrotation Yrotation Zrotation
					JOINT Head
					{
						OFFSET 0.000000 -0.000001 7.058014
						CHANNELS 3 Xrotation Yrotation Zrotation
						End Site
						{
							OFFSET 0.000000 5.634187 17.084396
						}
					}
				}
				JOINT RightShoulder
				{
					OFFSET -3.831360 0.533489 9.826309
					CHANNELS 3 Xrotation Yrotation Zrotation
					JOINT RightArm
					{
						OFFSET 0.000000 -0.000002 12.888092
						CHANNELS 3 Xrotation Yrotation Zrotation
						JOINT RightArmRoll
						{
							OFFSET 0.000000 -0.000001 6.506165
							CHANNELS 3 Xrotation Yrotation Zrotation
							JOINT RightForeArm
							{
								OFFSET 0.000000 -0.000003 18.950104
								CHANNELS 3 Xrotation Yrotation Zrotation
								JOINT RightForeArmRoll
								{
									OFFSET 0.000000 -0.000002 7.300919
									CHANNELS 3 Xrotation Yrotation Zrotation
									JOINT RightHand
									{
										OFFSET 0.000000 -0.000002 14.651398
										CHANNELS 3 Xrotation Yrotation Zrotation
										End Site
										{
											OFFSET 0.000000 0.000000 0.100006
										}
									}
								}
							}
						}
					}
				}
				JOINT LeftShoulder
				{
					OFFSET 3.831360 0.533489 9.826309
					CHANNELS 3 Xrotation Yrotation Zrotation
					JOINT LeftArm
					{
						OFFSET 0.000000 -0.000002 12.888092
						CHANNELS 3 Xrotation Yrotation Zrotation
						JOINT LeftArmRoll
						{
							OFFSET 0.000000 -0.000001 6.506165
							CHANNELS 3 Xrotation Yrotation Zrotation
							JOINT LeftForeArm
							{
								OFFSET 0.000000 -0.000003 18.950104
								CHANNELS 3 Xrotation Yrotation Zrotation
								JOINT LeftForeArmRoll
								{
									OFFSET 0.000000 -0.000002 7.300919
									CHANNELS 3 Xrotation Yrotation Zrotation
									JOINT LeftHand
									{
										OFFSET 0.000000 -0.000002 14.651398
										CHANNELS 3 Xrotation Yrotation Zrotation
										End Site
										{
											OFFSET 0.000000 0.000000 0.100006
										}
									}
								}
							}
						}
					}
				}
			}
		}
	}
	JOINT RightUpLeg
	{
		OFFSET -6.068371 0.933477 -1.112778
		CHANNELS 3 Xrotation Yrotation Zrotation
		JOINT RightUpLegRoll
		{
			OFFSET 0.000000 -0.000003 17.179596
			CHANNELS 3 Xrotation Yrotation Zrotation
			JOINT RightLeg
			{
				OFFSET 0.000000 0.000004 -21.274300
				CHANNELS 3 Xrotation Yrotation Zrotation
				JOINT RightLegRoll
				{
					OFFSET 0.000000 -0.000004 21.343903
					CHANNELS 3 Xrotation Yrotation Zrotation
					JOINT RightFoot
					{
						OFFSET 0.000000 -0.000003 17.765198
						CHANNELS 3 Xrotation Yrotation Zrotation
						JOINT RightToeBase
						{
							OFFSET 0.000000 -0.000002 14.850792
							CHANNELS 3 Xrotation Yrotation Zrotation
							End Site
							{
								OFFSET 0.006294 0.829004 7.192139
							}
						}
					}
				}
			}
		}
	}
	JOINT LeftUpLeg
	{
		OFFSET 6.068371 0.933477 -1.112778
		CHANNELS 3 Xrotation Yrotation Zrotation
		JOINT LeftUpLegRoll
		{
			OFFSET 0.000000 -0.000003 17.179703
			CHANNELS 3 Xrotation Yrotation Zrotation
			JOINT LeftLeg
			{
				OFFSET 0.000000 -0.000003 21.274200
				CHANNELS 3 Xrotation Yrotation Zrotation
				JOINT LeftLegRoll
				{
					OFFSET 0.000000 -0.000004 21.541199
					CHANNELS 3 Xrotation Yrotation Zrotation
					JOINT LeftFoot
					{
						OFFSET 0.000000 -0.000003 17.567902
						CHANNELS 3 Xrotation Yrotation Zrotation
						JOINT LeftToeBase
						{
							OFFSET 0.000000 -0.000002 14.850800
							CHANNELS 3 Xrotation Yrotation Zrotation
							End Site
							{
								OFFSET -0.028210 0.829004 7.192139
							}
						}
					}
				}
			}
		}
	}
}
MOTION
Frames: 9
Frame Time: 0.041667
48.086998 -8.222154 86.855209 -0.833432 -1.842155 0.199519 -3.324680 -1.173941 1.294898 -2.619934 -2.391521 2.517979 -0.974939 -2.361069 2.546431 28.900661 8.548000 0.458409 18.499130 -4.821882 2.262100 -12.883534 -27.328902 -13.662793 24.256881 -44.941897 70.970938 0.000001 -0.000009 -0.000005 0.013473 -1.826070 0.235470 -0.000004 -0.000005 -3.051020 -5.000224 -7.999033 0.000157 -13.313592 42.013064 15.026665 38.039181 39.723349 -89.390456 0.000003 -0.000007 0.000010 1.123413 -1.240612 -2.539185 0.000007 -0.000011 3.001529 -5.000210 7.998754 -0.000150 -14.699824 -178.125378 -2.271541 -179.999991 0.000005 -1.171003 156.400171 -2.792580 -1.168368 -0.000001 -0.000003 0.683769 72.713784 7.312495 0.634016 25.456947 -7.355615 0.000010 -11.076524 176.582711 0.549422 -0.000004 -0.000005 -0.738698 -19.178647 1.111352 1.083484 -0.000003 -0.000002 -0.122176 71.235472 -5.128232 -6.817193 25.456854 7.355620 0.000012 
48.073296 -8.224573 86.850410 -0.837614 -1.844503 0.206012 -3.324117 -1.173063 1.294840 -2.618601 -2.391443 2.519358 -0.973607 -2.360990 2.547808 28.902850 8.549912 0.447890 18.494627 -4.826099 2.252557 -12.890080 -27.330655 -13.672405 24.271899 -44.935394 70.980248 0.000001 -0.000009 -0.000002 0.013470 -1.827959 0.235354 -0.000004 -0.000006 -3.051030 -5.000223 -7.999032 0.000157 -13.309576 42.007952 15.021160 38.051732 39.712912 -89.397778 0.000004 -0.000006 0.000013 1.116491 -1.239044 -2.539426 0.000006 -0.000010 3.001527 -5.000211 7.998753 -0.000151 -14.713949 -178.123574 -2.272559 -179.999991 0.000005 -1.171004 156.371348 -2.791966 -1.168775 -0.000000 -0.000003 0.685209 72.724125 7.312739 0.633477 25.456948 -7.355615 0.000010 -11.089433 176.583845 0.550277 -0.000004 -0.000004 -0.738665 -19.211553 1.111498 1.085234 -0.000004 -0.000002 -0.122176 71.251085 -5.127991 -6.817437 25.456861 7.355621 0.000012 
48.075798 -8.228792 86.849106 -0.841759 -1.846890 0.212444 -3.323573 -1.172126 1.294706 -2.617331 -2.391376 2.520704 -0.972333 -2.360921 2.549151 28.905784 8.552297 0.436969 18.489645 -4.830766 2.242792 -12.896590 -27.332122 -13.682042 24.287587 -44.928749 70.990131 0.000002 -0.000009 -0.000004 0.013466 -1.829848 0.235250 -0.000005 -0.000006 -3.051040 -5.000223 -7.999033 0.000156 -13.305647 42.003324 15.015775 38.063951 39.702206 -89.404294 0.000003 -0.000006 0.000012 1.109427 -1.237079 -2.539638 0.000006 -0.000010 3.001532 -5.000212 7.998754 -0.000149 -14.729660 -178.122741 -2.273548 -179.999991 0.000005 -1.171003 156.340517 -2.792223 -1.168683 -0.000001 -0.000003 0.686783 72.735135 7.313017 0.632801 25.456948 -7.355614 0.000010 -11.103731 176.585962 0.550961 -0.000004 -0.000004 -0.738631 -19.247260 1.111673 1.087138 -0.000003 -0.000002 -0.122176 71.268147 -5.127739 -6.817710 25.456858 7.355620 0.000013 
48.086098 -8.224411 86.854515 -0.845857 -1.849288 0.218789 -3.323064 -1.171168 1.294522 -2.616119 -2.391347 2.522036 -0.971121 -2.360891 2.550481 28.909370 8.555126 0.425654 18.484165 -4.835912 2.232809 -12.903177 -27.333275 -13.691673 24.303669 -44.922004 71.000383 0.000001 -0.000009 -0.000002 0.013462 -1.831749 0.235153 -0.000005 -0.000005 -3.051051 -5.000224 -7.999031 0.000158 -13.301767 41.998987 15.010490 38.075836 39.691428 -89.409888 0.000004 -0.000007 0.000011 1.102527 -1.234663 -2.539805 0.000007 -0.000010 3.001530 -5.000211 7.998753 -0.000150 -14.746387 -178.120938 -2.274896 -179.999991 0.000005 -1.171003 156.308278 -2.791536 -1.168245 -0.000002 -0.000003 0.688446 72.746487 7.313354 0.632109 25.456948 -7.355614 0.000010 -11.118935 176.588107 0.551636 -0.000004 -0.000005 -0.738597 -19.284773 1.111871 1.089147 -0.000003 -0.000002 -0.122175 71.286152 -5.127505 -6.817944 25.456856 7.355620 0.000013 
48.082794 -8.223724 86.848404 -0.849887 -1.851666 0.225018 -3.322571 -1.170210 1.294328 -2.614969 -2.391380 2.523363 -0.969977 -2.360912 2.551808 28.913495 8.558344 0.413956 18.478100 -4.841570 2.222599 -12.909622 -27.334154 -13.701137 24.319829 -44.915444 71.010745 0.000000 -0.000008 -0.000004 0.013460 -1.833681 0.235067 -0.000004 -0.000004 -3.051059 -5.000222 -7.999033 0.000153 -13.297918 41.994858 15.005251 38.087713 39.680650 -89.414683 0.000003 -0.000006 0.000011 1.096133 -1.231726 -2.539919 0.000007 -0.000012 3.001530 -5.000210 7.998753 -0.000150 -14.763505 -178.120132 -2.275991 -179.999991 0.000005 -1.171003 156.275521 -2.791762 -1.169249 -0.000001 -0.000003 0.690154 72.757989 7.313737 0.631316 25.456948 -7.355614 0.000010 -11.134541 176.590252 0.552282 -0.000003 -0.000005 -0.738563 -19.323080 1.112073 1.091205 -0.000004 -0.000002 -0.122175 71.304682 -5.127267 -6.818152 25.456856 7.355619 0.000013 
48.085297 -8.225481 86.854706 -0.853832 -1.853984 0.231108 -3.322101 -1.169302 1.294140 -2.613898 -2.391472 2.524714 -0.968902 -2.361004 2.553161 28.918259 8.561897 0.401859 18.471550 -4.847761 2.212176 -12.915942 -27.334941 -13.710398 24.335867 -44.908904 71.020819 0.000001 -0.000009 -0.000004 0.013457 -1.835640 0.234982 -0.000003 -0.000004 -3.051070 -5.000222 -7.999033 0.000156 -13.294103 41.990818 15.000043 38.099465 39.670118 -89.418596 0.000003 -0.000006 0.000013 1.090561 -1.228218 -2.539962 0.000006 -0.000011 3.001530 -5.000211 7.998754 -0.000149 -14.780721 -178.119312 -2.277020 -179.999991 0.000005 -1.171003 156.242900 -2.791064 -1.168844 -0.000001 -0.000003 0.691863 72.769382 7.314154 0.630435 25.456945 -7.355615 0.000011 -11.150157 176.591413 0.553074 -0.000004 -0.000004 -0.738528 -19.361392 1.112265 1.093263 -0.000004 -0.000002 -0.122175 71.323096 -5.127013 -6.818563 25.456849 7.355620 0.000013 
48.085495 -8.229483 86.853302 -0.857678 -1.856212 0.237032 -3.321659 -1.168464 1.294008 -2.612898 -2.391655 2.526097 -0.967906 -2.361185 2.554549 28.923447 8.565756 0.389370 18.464414 -4.854523 2.201528 -12.922027 -27.335652 -13.719330 24.351255 -44.902616 71.030470 0.000000 -0.000009 -0.000005 0.013454 -1.837659 0.234902 -0.000004 -0.000005 -3.051089 -5.000223 -7.999033 0.000155 -13.290286 41.986771 14.994856 38.111574 39.660139 -89.421861 0.000003 -0.000006 0.000012 1.086148 -1.224091 -2.539906 0.000006 -0.000011 3.001530 -5.000211 7.998753 -0.000148 -14.797444 -178.117523 -2.278128 -179.999991 0.000005 -1.171003 156.211235 -2.791299 -1.168778 -0.000002 -0.000003 0.693528 72.780570 7.314581 0.629367 25.456950 -7.355615 0.000011 -11.165358 176.593557 0.553600 -0.000004 -0.000005 -0.738492 -19.398497 1.112445 1.095271 -0.000004 -0.000002 -0.122175 71.341005 -5.126782 -6.818802 25.456854 7.355619 0.000013 
48.079697 -8.221960 86.857597 -0.861407 -1.858320 0.242760 -3.321229 -1.167746 1.293948 -2.611987 -2.391955 2.527531 -0.966990 -2.361473 2.555981 28.929164 8.569847 0.376486 18.456790 -4.861864 2.190665 -12.927771 -27.336398 -13.727828 24.365882 -44.896592 71.039302 0.000001 -0.000009 -0.000002 0.013450 -1.839739 0.234819 -0.000003 -0.000004 -3.051098 -5.000223 -7.999033 0.000156 -13.286449 41.982635 14.989632 38.123920 39.650758 -89.424498 0.000004 -0.000006 0.000014 1.083216 -1.219272 -2.539760 0.000007 -0.000010 3.001531 -5.000209 7.998753 -0.000150 -14.812963 -178.116690 -2.278706 -179.999991 0.000005 -1.171003 156.181401 -2.791572 -1.168639 -0.000001 -0.000003 0.695104 72.791122 7.315085 0.628154 25.456952 -7.355615 0.000010 -11.179672 176.594705 0.554231 -0.000003 -0.000005 -0.738456 -19.433609 1.112583 1.097169 -0.000004 -0.000002 -0.122174 71.357773 -5.126569 -6.819094 25.456854 7.355620 0.000012 
48.082497 -8.221105 86.855209 -0.865005 -1.860258 0.248269 -3.320818 -1.167167 1.294000 -2.611157 -2.392377 2.529027 -0.966161 -2.361885 2.557489 28.935304 8.574141 0.363219 18.448481 -4.869837 2.179576 -12.933294 -27.337163 -13.735872 24.379296 -44.890845 71.047081 0.000001 -0.000009 -0.000005 0.013447 -1.841900 0.234730 -0.000004 -0.000005 -3.051108 -5.000224 -7.999032 0.000157 -13.282621 41.978397 14.984405 38.136652 39.642206 -89.426369 0.000002 -0.000005 0.000016 1.082093 -1.213712 -2.539477 0.000007 -0.000010 3.001529 -5.000214 7.998752 -0.000149 -14.826980 -178.115843 -2.278922 -179.999991 0.000005 -1.171003 156.153943 -2.791894 -1.168371 -0.000002 -0.000003 0.696547 72.800958 7.315640 0.626697 25.456948 -7.355613 0.000010 -11.192682 176.595839 0.554748 -0.000003 -0.000004 -0.738420 -19.465617 1.112664 1.098904 -0.000004 -0.000002 -0.122174 71.373079 -5.126325 -6.819553 25.456858 7.355621 0.000013 
